<?xml version="1.0" encoding="UTF-8" ?>
<!DOCTYPE svg PUBLIC "-//W3C//DTD SVG 1.1//EN" "http://www.w3.org/Graphics/SVG/1.1/DTD/svg11.dtd">
<svg width="32pt" height="32pt" viewBox="0 0 32 32" version="1.1" xmlns="http://www.w3.org/2000/svg">
<path fill="#ffffff" d=" M 0.00 0.00 L 32.00 0.00 L 32.00 32.00 L 0.00 32.00 L 0.00 0.00 Z" />
<path fill="#000000" d=" M 13.33 1.40 C 20.23 -0.23 26.49 4.44 30.11 9.88 C 24.66 9.88 17.15 9.46 13.95 14.96 C 11.67 18.24 15.01 23.87 10.84 26.03 C 12.11 27.82 13.87 29.19 15.10 31.01 C 6.97 30.00 0.10 22.46 1.11 14.05 C 2.46 8.02 7.09 2.53 13.33 1.40 Z" />
<path fill="#000000" d=" M 20.25 16.19 C 22.95 16.14 28.35 16.06 31.05 16.02 C 30.75 24.01 23.92 30.87 15.88 31.01 C 17.11 29.19 18.90 27.83 20.17 26.04 C 16.62 24.11 16.99 18.20 20.25 16.19 Z" />
</svg>
